<svg width="78" height="89" viewBox="0 0 78 89" fill="none" xmlns="http://www.w3.org/2000/svg">
<path d="M76.3513 65.5332C74.8457 68.1406 72.3413 70.0093 68.8379 71.1392C65.3346 72.269 61.1798 72.6022 56.3736 72.1387C54.2889 77.4115 51.7266 81.5399 48.6865 84.5239C45.6464 87.508 42.4036 89 38.9582 89C35.5128 89 32.27 87.4935 29.2299 84.4805C26.1898 81.4675 23.6275 77.3535 21.5428 72.1387C16.7366 72.6022 12.5818 72.269 9.07847 71.1392C5.57513 70.0093 3.07068 68.1406 1.56511 65.5332C0.0016325 62.694 -0.360283 59.4782 0.479361 55.8857C1.319 52.2933 3.27335 48.498 6.34239 44.5C3.27335 40.502 1.319 36.7067 0.479361 33.1143C-0.360283 29.5218 0.0016325 26.306 1.56511 23.4668C3.07068 20.8594 5.58961 18.9907 9.1219 17.8608C12.6542 16.731 16.7945 16.3978 21.5428 16.8613C23.6275 11.5885 26.1898 7.46012 29.2299 4.47607C32.27 1.49203 35.5128 0 38.9582 0C42.4036 0 45.6464 1.49203 48.6865 4.47607C51.7266 7.46012 54.2889 11.5885 56.3736 16.8613C61.1798 16.3978 65.3346 16.731 68.8379 17.8608C72.3413 18.9907 74.8457 20.8594 76.3513 23.4668C77.9727 26.248 78.3491 29.4494 77.4805 33.0708C76.6119 36.6922 74.6431 40.502 71.574 44.5C74.6431 48.498 76.6119 52.2933 77.4805 55.8857C78.3491 59.4782 77.9727 62.694 76.3513 65.5332ZM71.3134 62.4043C73.3981 58.9277 72.3268 54.3213 68.0996 48.585C65.7834 51.0765 63.2355 53.4232 60.456 55.625C59.9927 59.4492 59.2399 63.1286 58.1976 66.6631C64.9727 67.0687 69.3446 65.6491 71.3134 62.4043ZM23.7143 28.9424C25.2199 27.9574 26.6965 27.0592 28.1442 26.248C28.4337 26.1322 29.5339 25.5817 31.4448 24.5967C29.1865 23.9014 27.0729 23.3799 25.1041 23.0322C24.525 25.0023 24.0618 26.9723 23.7143 28.9424ZM31.0105 31.2021C28.1152 32.8245 25.3357 34.5918 22.672 36.5039C22.4404 39.1113 22.3246 41.7767 22.3246 44.5C22.3246 46.8757 22.4404 49.57 22.672 52.583C25.3936 54.4951 28.1731 56.2334 31.0105 57.7979C33.5005 59.1885 36.1353 60.4632 38.9148 61.6221C41.9259 60.3473 44.6186 59.0726 46.9927 57.7979C49.8881 56.1755 52.6676 54.4082 55.3313 52.4961C55.5629 49.8307 55.6787 47.1654 55.6787 44.5C55.6787 42.1823 55.5339 39.488 55.2444 36.417C52.5228 34.5049 49.7722 32.7666 46.9927 31.2021C44.4448 29.8115 41.7811 28.5368 39.0016 27.3779C35.9905 28.6527 33.3268 29.9274 31.0105 31.2021ZM16.8524 41.1104C15.6943 42.0954 14.5072 43.2253 13.2912 44.5C14.4493 45.7168 15.6364 46.8467 16.8524 47.8896C16.7945 46.2093 16.7656 45.0794 16.7656 44.5C16.7656 43.5729 16.7945 42.443 16.8524 41.1104ZM54.2889 60.0576C52.6676 61.0426 51.162 61.9408 49.7722 62.752L46.4716 64.4033C48.672 65.0986 50.7856 65.6201 52.8123 65.9678C53.3914 63.9977 53.8836 62.0277 54.2889 60.0576ZM61.1509 47.8896C62.309 46.8467 63.4671 45.7168 64.6252 44.5C63.525 43.3411 62.3379 42.2113 61.064 41.1104C61.1798 43.0225 61.2377 44.1523 61.2377 44.5C61.2377 45.0794 61.2088 46.2093 61.1509 47.8896ZM39.0016 83.4375C41.3179 83.4375 43.5183 82.3801 45.603 80.2651C47.6876 78.1502 49.4827 75.2096 50.9883 71.4434C47.1664 70.6901 43.1419 69.5023 38.9148 67.8799C34.7455 69.5023 30.75 70.6901 26.9281 71.4434C28.4916 75.2096 30.3157 78.1502 32.4003 80.2651C34.4849 82.3801 36.6854 83.4375 39.0016 83.4375ZM31.358 64.4033C30.0261 63.766 28.9549 63.2155 28.1442 62.752C26.8123 61.9987 25.3357 61.1006 23.7143 60.0576C24.1197 62.3753 24.5829 64.3454 25.1041 65.9678C26.8992 65.6781 28.9838 65.1566 31.358 64.4033ZM6.60297 62.4043C8.6297 65.6491 13.0016 67.0687 19.7188 66.6631C18.7344 63.2445 17.9816 59.5651 17.4604 55.625C14.6809 53.4232 12.133 51.1055 9.81678 48.6719C5.64751 54.4082 4.57624 58.9857 6.60297 62.4043ZM6.60297 26.5957C4.57624 30.0723 5.64751 34.6497 9.81678 40.3281C12.133 37.8945 14.6809 35.5768 17.4604 33.375C17.9237 29.5508 18.6765 25.8714 19.7188 22.3369C13.0016 21.9313 8.6297 23.3509 6.60297 26.5957ZM39.0016 5.5625C36.6854 5.5625 34.4849 6.61995 32.4003 8.73486C30.3157 10.8498 28.4916 13.7904 26.9281 17.5566C30.8079 18.3099 34.8324 19.4977 39.0016 21.1201C43.2288 19.4977 47.2244 18.3099 50.9883 17.5566C49.4248 13.7904 47.6152 10.8498 45.5595 8.73486C43.5039 6.61995 41.3179 5.5625 39.0016 5.5625ZM46.6453 24.5967C47.8613 25.2341 48.9036 25.7845 49.7722 26.248C51.0462 27.0013 52.5228 27.8994 54.2021 28.9424C53.7967 26.6826 53.3624 24.7126 52.8992 23.0322C51.162 23.3219 49.0774 23.8434 46.6453 24.5967ZM71.3134 26.5957C69.3446 23.3509 64.9727 21.9313 58.1976 22.3369C59.182 25.7555 59.9348 29.4349 60.456 33.375C63.2355 35.5768 65.7834 37.8945 68.0996 40.3281C72.2689 34.6497 73.3402 30.0723 71.3134 26.5957Z" fill="white"/>
</svg>
